<?xml version="1.0" standalone="no"?>
 <!DOCTYPE svg PUBLIC "-//W3C//DTD SVG 1.1//EN" 
 "http://www.w3.org/Graphics/SVG/1.1/DTD/svg11.dtd"> 
<svg xmlns="http://www.w3.org/2000/svg" version="1.1" 
    width="41.9989cm" height="29.7002cm" viewBox="0 0 165350 116930 ">
<title>SVG Picture created as bacteroid-PowerSupply-F_SilkS.svg date 2013/10/01 23:16:32 </title>
  <desc>Picture generated by PCBNEW </desc>
<g style="fill:#000000; fill-opacity:1;stroke:#000000; stroke-opacity:1;
stroke-linecap:round; stroke-linejoin:round; "
 transform="translate(0 0) scale(1 1)">
</g>
<g style="fill:#000000; fill-opacity:0.0; 
stroke:#000000; stroke-width:39.3701; stroke-opacity:1; 
stroke-linecap:round; stroke-linejoin:round;">
<path d="M4000 4000
L161350 4000
L161350 112930
L4000 112930
L4000 4000
" />
<path d="M4700 4700
L160650 4700
L160650 112230
L4700 112230
L4700 4700
" />
<path d="M26470 4000
L26470 4700
" />
<path d="M15382 4552
L15097 4552
" />
<path d="M15240 4552
L15240 4052
L15192 4123
L15144 4171
L15097 4195
" />
<path d="M26470 112930
L26470 112230
" />
<path d="M15382 112782
L15097 112782
" />
<path d="M15240 112782
L15240 112282
L15192 112353
L15144 112401
L15097 112425
" />
<path d="M48940 4000
L48940 4700
" />
<path d="M37567 4100
L37590 4076
L37638 4052
L37757 4052
L37805 4076
L37829 4100
L37852 4147
L37852 4195
L37829 4266
L37543 4552
L37852 4552
" />
<path d="M48940 112930
L48940 112230
" />
<path d="M37567 112330
L37590 112306
L37638 112282
L37757 112282
L37805 112306
L37829 112330
L37852 112377
L37852 112425
L37829 112496
L37543 112782
L37852 112782
" />
<path d="M71410 4000
L71410 4700
" />
<path d="M60013 4052
L60322 4052
L60156 4242
L60227 4242
L60275 4266
L60299 4290
L60322 4338
L60322 4457
L60299 4504
L60275 4528
L60227 4552
L60084 4552
L60037 4528
L60013 4504
" />
<path d="M71410 112930
L71410 112230
" />
<path d="M60013 112282
L60322 112282
L60156 112472
L60227 112472
L60275 112496
L60299 112520
L60322 112568
L60322 112687
L60299 112734
L60275 112758
L60227 112782
L60084 112782
L60037 112758
L60013 112734
" />
<path d="M93880 4000
L93880 4700
" />
<path d="M82745 4219
L82745 4552
" />
<path d="M82626 4028
L82507 4385
L82816 4385
" />
<path d="M93880 112930
L93880 112230
" />
<path d="M82745 112449
L82745 112782
" />
<path d="M82626 112258
L82507 112615
L82816 112615
" />
<path d="M116350 4000
L116350 4700
" />
<path d="M105239 4052
L105000 4052
L104977 4290
L105000 4266
L105048 4242
L105167 4242
L105215 4266
L105239 4290
L105262 4338
L105262 4457
L105239 4504
L105215 4528
L105167 4552
L105048 4552
L105000 4528
L104977 4504
" />
<path d="M116350 112930
L116350 112230
" />
<path d="M105239 112282
L105000 112282
L104977 112520
L105000 112496
L105048 112472
L105167 112472
L105215 112496
L105239 112520
L105262 112568
L105262 112687
L105239 112734
L105215 112758
L105167 112782
L105048 112782
L105000 112758
L104977 112734
" />
<path d="M138820 4000
L138820 4700
" />
<path d="M127685 4052
L127590 4052
L127542 4076
L127518 4100
L127470 4171
L127447 4266
L127447 4457
L127470 4504
L127494 4528
L127542 4552
L127637 4552
L127685 4528
L127709 4504
L127732 4457
L127732 4338
L127709 4290
L127685 4266
L127637 4242
L127542 4242
L127494 4266
L127470 4290
L127447 4338
" />
<path d="M138820 112930
L138820 112230
" />
<path d="M127685 112282
L127590 112282
L127542 112306
L127518 112330
L127470 112401
L127447 112496
L127447 112687
L127470 112734
L127494 112758
L127542 112782
L127637 112782
L127685 112758
L127709 112734
L127732 112687
L127732 112568
L127709 112520
L127685 112496
L127637 112472
L127542 112472
L127494 112496
L127470 112520
L127447 112568
" />
<path d="M149893 4052
L150226 4052
L150012 4552
" />
<path d="M149893 112282
L150226 112282
L150012 112782
" />
<path d="M4000 25780
L4700 25780
" />
<path d="M4230 14949
L4469 14949
" />
<path d="M4183 15092
L4350 14592
L4516 15092
" />
<path d="M161350 25780
L160650 25780
" />
<path d="M160880 14949
L161119 14949
" />
<path d="M160833 15092
L161000 14592
L161166 15092
" />
<path d="M4000 47560
L4700 47560
" />
<path d="M4385 36610
L4457 36634
L4480 36658
L4504 36705
L4504 36777
L4480 36824
L4457 36848
L4409 36872
L4219 36872
L4219 36372
L4385 36372
L4433 36396
L4457 36420
L4480 36467
L4480 36515
L4457 36562
L4433 36586
L4385 36610
L4219 36610
" />
<path d="M161350 47560
L160650 47560
" />
<path d="M161035 36610
L161107 36634
L161130 36658
L161154 36705
L161154 36777
L161130 36824
L161107 36848
L161059 36872
L160869 36872
L160869 36372
L161035 36372
L161083 36396
L161107 36420
L161130 36467
L161130 36515
L161107 36562
L161083 36586
L161035 36610
L160869 36610
" />
<path d="M4000 69340
L4700 69340
" />
<path d="M4504 58604
L4480 58628
L4409 58652
L4361 58652
L4290 58628
L4242 58580
L4219 58533
L4195 58438
L4195 58366
L4219 58271
L4242 58223
L4290 58176
L4361 58152
L4409 58152
L4480 58176
L4504 58200
" />
<path d="M161350 69340
L160650 69340
" />
<path d="M161154 58604
L161130 58628
L161059 58652
L161011 58652
L160940 58628
L160892 58580
L160869 58533
L160845 58438
L160845 58366
L160869 58271
L160892 58223
L160940 58176
L161011 58152
L161059 58152
L161130 58176
L161154 58200
" />
<path d="M4000 91120
L4700 91120
" />
<path d="M4219 80432
L4219 79932
L4338 79932
L4409 79956
L4457 80003
L4480 80051
L4504 80146
L4504 80218
L4480 80313
L4457 80360
L4409 80408
L4338 80432
L4219 80432
" />
<path d="M161350 91120
L160650 91120
" />
<path d="M160869 80432
L160869 79932
L160988 79932
L161059 79956
L161107 80003
L161130 80051
L161154 80146
L161154 80218
L161130 80313
L161107 80360
L161059 80408
L160988 80432
L160869 80432
" />
<path d="M4242 101950
L4409 101950
" />
<path d="M4480 102212
L4242 102212
L4242 101712
L4480 101712
" />
<path d="M160892 101950
L161059 101950
" />
<path d="M161130 102212
L160892 102212
L160892 101712
L161130 101712
" />
<path d="M127800 110672
L127875 110072
L128017 110072
L128100 110101
L128150 110158
L128171 110215
L128185 110330
L128175 110415
L128132 110530
L128096 110587
L128032 110644
L127942 110672
L127800 110672
" />
<path d="M128657 110672
L128696 110358
L128675 110301
L128621 110272
L128507 110272
L128446 110301
" />
<path d="M128660 110644
L128600 110672
L128457 110672
L128403 110644
L128382 110587
L128389 110530
L128425 110472
L128485 110444
L128628 110444
L128689 110415
" />
<path d="M128907 110272
L129135 110272
" />
<path d="M129017 110072
L128953 110587
L128975 110644
L129028 110672
L129085 110672
" />
<path d="M129517 110644
L129457 110672
L129342 110672
L129289 110644
L129267 110587
L129296 110358
L129332 110301
L129392 110272
L129507 110272
L129560 110301
L129582 110358
L129575 110415
L129282 110472
" />
<path d="M129807 110615
L129832 110644
L129800 110672
L129775 110644
L129807 110615
L129800 110672
" />
<path d="M129846 110301
L129871 110330
L129839 110358
L129814 110330
L129846 110301
L129839 110358
" />
<path d="M130857 110672
L130514 110672
" />
<path d="M130685 110672
L130760 110072
L130692 110158
L130628 110215
L130567 110244
" />
<path d="M131657 110672
L131603 110644
L131578 110615
L131557 110558
L131578 110387
L131614 110330
L131646 110301
L131707 110272
L131792 110272
L131846 110301
L131871 110330
L131892 110387
L131871 110558
L131835 110615
L131803 110644
L131742 110672
L131657 110672
" />
<path d="M132375 110644
L132314 110672
L132200 110672
L132146 110644
L132121 110615
L132100 110558
L132121 110387
L132157 110330
L132189 110301
L132250 110272
L132364 110272
L132417 110301
" />
<path d="M132592 110272
L132821 110272
" />
<path d="M132703 110072
L132639 110587
L132660 110644
L132714 110672
L132771 110672
" />
<path d="M133467 110130
L133500 110101
L133560 110072
L133703 110072
L133757 110101
L133782 110130
L133803 110187
L133796 110244
L133757 110330
L133371 110672
L133742 110672
" />
<path d="M134189 110072
L134246 110072
L134300 110101
L134325 110130
L134346 110187
L134360 110301
L134342 110444
L134300 110558
L134264 110615
L134232 110644
L134171 110672
L134114 110672
L134060 110644
L134035 110615
L134014 110558
L134000 110444
L134017 110301
L134060 110187
L134096 110130
L134128 110101
L134189 110072
" />
<path d="M134885 110672
L134542 110672
" />
<path d="M134714 110672
L134789 110072
L134721 110158
L134657 110215
L134596 110244
" />
<path d="M135160 110072
L135532 110072
L135303 110301
L135389 110301
L135442 110330
L135467 110358
L135489 110415
L135471 110558
L135435 110615
L135403 110644
L135342 110672
L135171 110672
L135117 110644
L135092 110615
" />
<path d="M119392 111872
L119392 111272
" />
<path d="M119735 111872
L119478 111530
" />
<path d="M119735 111272
L119392 111615
" />
<path d="M119992 111872
L119992 111472
" />
<path d="M119992 111272
L119964 111301
L119992 111330
L120021 111301
L119992 111272
L119992 111330
" />
<path d="M120621 111815
L120592 111844
L120507 111872
L120450 111872
L120364 111844
L120307 111787
L120278 111730
L120250 111615
L120250 111530
L120278 111415
L120307 111358
L120364 111301
L120450 111272
L120507 111272
L120592 111301
L120621 111330
" />
<path d="M121135 111872
L121135 111558
L121107 111501
L121050 111472
L120935 111472
L120878 111501
" />
<path d="M121135 111844
L121078 111872
L120935 111872
L120878 111844
L120850 111787
L120850 111730
L120878 111672
L120935 111644
L121078 111644
L121135 111615
" />
<path d="M121678 111872
L121678 111272
" />
<path d="M121678 111844
L121621 111872
L121507 111872
L121450 111844
L121421 111815
L121392 111758
L121392 111587
L121421 111530
L121450 111501
L121507 111472
L121621 111472
L121678 111501
" />
<path d="M122421 111558
L122621 111558
" />
<path d="M122707 111872
L122421 111872
L122421 111272
L122707 111272
" />
<path d="M122964 111815
L122992 111844
L122964 111872
L122935 111844
L122964 111815
L122964 111872
" />
<path d="M123249 111872
L123249 111272
L123392 111272
L123478 111301
L123535 111358
L123564 111415
L123592 111530
L123592 111615
L123564 111730
L123535 111787
L123478 111844
L123392 111872
L123249 111872
" />
<path d="M123849 111815
L123878 111844
L123849 111872
L123821 111844
L123849 111815
L123849 111872
" />
<path d="M124107 111701
L124392 111701
" />
<path d="M124049 111872
L124249 111272
L124449 111872
" />
<path d="M124649 111815
L124678 111844
L124649 111872
L124621 111844
L124649 111815
L124649 111872
" />
<path d="M152942 110672
L152778 110387
" />
<path d="M152600 110672
L152675 110072
L152903 110072
L152957 110101
L152982 110130
L153003 110187
L152992 110272
L152957 110330
L152925 110358
L152864 110387
L152635 110387
" />
<path d="M153432 110644
L153371 110672
L153257 110672
L153203 110644
L153182 110587
L153210 110358
L153246 110301
L153307 110272
L153421 110272
L153475 110301
L153496 110358
L153489 110415
L153196 110472
" />
<path d="M153707 110272
L153800 110672
L153992 110272
" />
<path d="M154178 110615
L154203 110644
L154171 110672
L154146 110644
L154178 110615
L154171 110672
" />
<path d="M154217 110301
L154242 110330
L154210 110358
L154185 110330
L154217 110301
L154210 110358
" />
<path d="M119364 110644
L119450 110672
L119592 110672
L119650 110644
L119678 110615
L119707 110558
L119707 110501
L119678 110444
L119650 110415
L119592 110387
L119478 110358
L119421 110330
L119392 110301
L119364 110244
L119364 110187
L119392 110130
L119421 110101
L119478 110072
L119621 110072
L119707 110101
" />
<path d="M119964 110672
L119964 110272
" />
<path d="M119964 110072
L119935 110101
L119964 110130
L119992 110101
L119964 110072
L119964 110130
" />
<path d="M120192 110272
L120507 110272
L120192 110672
L120507 110672
" />
<path d="M120964 110644
L120907 110672
L120792 110672
L120735 110644
L120707 110587
L120707 110358
L120735 110301
L120792 110272
L120907 110272
L120964 110301
L120992 110358
L120992 110415
L120707 110472
" />
<path d="M121250 110615
L121278 110644
L121250 110672
L121221 110644
L121250 110615
L121250 110672
" />
<path d="M121250 110301
L121278 110330
L121250 110358
L121221 110330
L121250 110301
L121250 110358
" />
<path d="M121964 110501
L122250 110501
" />
<path d="M121907 110672
L122107 110072
L122307 110672
" />
<path d="M122450 110072
L122821 110072
L122621 110301
L122707 110301
L122764 110330
L122792 110358
L122821 110415
L122821 110558
L122792 110615
L122764 110644
L122707 110672
L122535 110672
L122478 110644
L122450 110615
" />
<path d="M152592 111872
L152592 111272
" />
<path d="M153135 111872
L153135 111272
" />
<path d="M153135 111844
L153078 111872
L152964 111872
L152907 111844
L152878 111815
L152850 111758
L152850 111587
L152878 111530
L152907 111501
L152964 111472
L153078 111472
L153135 111501
" />
<path d="M153421 111815
L153450 111844
L153421 111872
L153392 111844
L153421 111815
L153421 111872
" />
<path d="M153421 111501
L153450 111530
L153421 111558
L153392 111530
L153421 111501
L153421 111558
" />
<path d="M154478 111872
L154135 111872
" />
<path d="M154307 111872
L154307 111272
L154249 111358
L154192 111415
L154135 111444
" />
<path d="M155164 111244
L154650 112015
" />
<path d="M155678 111872
L155335 111872
" />
<path d="M155507 111872
L155507 111272
L155449 111358
L155392 111415
L155335 111444
" />
<path d="M119389 108872
L119732 108872
" />
<path d="M119485 109472
L119560 108872
" />
<path d="M119857 109472
L119907 109072
" />
<path d="M119932 108872
L119900 108901
L119925 108930
L119957 108901
L119932 108872
L119925 108930
" />
<path d="M120107 109072
L120335 109072
" />
<path d="M120217 108872
L120153 109387
L120175 109444
L120228 109472
L120285 109472
" />
<path d="M120571 109472
L120517 109444
L120496 109387
L120560 108872
" />
<path d="M121032 109444
L120971 109472
L120857 109472
L120803 109444
L120782 109387
L120810 109158
L120846 109101
L120907 109072
L121021 109072
L121075 109101
L121096 109158
L121089 109215
L120796 109272
" />
<path d="M121321 109415
L121346 109444
L121314 109472
L121289 109444
L121321 109415
L121314 109472
" />
<path d="M121360 109101
L121385 109130
L121353 109158
L121328 109130
L121360 109101
L121353 109158
" />
<path d="M119592 106758
L119392 106758
" />
<path d="M119392 107072
L119392 106472
L119678 106472
" />
<path d="M119907 107072
L119907 106672
" />
<path d="M119907 106472
L119878 106501
L119907 106530
L119935 106501
L119907 106472
L119907 106530
" />
<path d="M120278 107072
L120221 107044
L120192 106987
L120192 106472
" />
<path d="M120735 107044
L120678 107072
L120564 107072
L120507 107044
L120478 106987
L120478 106758
L120507 106701
L120564 106672
L120678 106672
L120735 106701
L120764 106758
L120764 106815
L120478 106872
" />
<path d="M121021 107015
L121050 107044
L121021 107072
L120992 107044
L121021 107015
L121021 107072
" />
<path d="M121021 106701
L121050 106730
L121021 106758
L120992 106730
L121021 106701
L121021 106758
" />
<path d="M121764 107072
L121764 106472
" />
<path d="M121764 106701
L121821 106672
L121935 106672
L121992 106701
L122021 106730
L122050 106787
L122050 106958
L122021 107015
L121992 107044
L121935 107072
L121821 107072
L121764 107044
" />
<path d="M122564 107072
L122564 106758
L122535 106701
L122478 106672
L122364 106672
L122307 106701
" />
<path d="M122564 107044
L122507 107072
L122364 107072
L122307 107044
L122278 106987
L122278 106930
L122307 106872
L122364 106844
L122507 106844
L122564 106815
" />
<path d="M123107 107044
L123050 107072
L122935 107072
L122878 107044
L122850 107015
L122821 106958
L122821 106787
L122850 106730
L122878 106701
L122935 106672
L123050 106672
L123107 106701
" />
<path d="M123278 106672
L123507 106672
" />
<path d="M123364 106472
L123364 106987
L123392 107044
L123450 107072
L123507 107072
" />
<path d="M123935 107044
L123878 107072
L123764 107072
L123707 107044
L123678 106987
L123678 106758
L123707 106701
L123764 106672
L123878 106672
L123935 106701
L123964 106758
L123964 106815
L123678 106872
" />
<path d="M124221 107072
L124221 106672
" />
<path d="M124221 106787
L124250 106730
L124278 106701
L124335 106672
L124392 106672
" />
<path d="M124678 107072
L124621 107044
L124592 107015
L124564 106958
L124564 106787
L124592 106730
L124621 106701
L124678 106672
L124764 106672
L124821 106701
L124850 106730
L124878 106787
L124878 106958
L124850 107015
L124821 107044
L124764 107072
L124678 107072
" />
<path d="M125135 107072
L125135 106672
" />
<path d="M125135 106472
L125107 106501
L125135 106530
L125164 106501
L125135 106472
L125135 106530
" />
<path d="M125678 107072
L125678 106472
" />
<path d="M125678 107044
L125621 107072
L125507 107072
L125450 107044
L125421 107015
L125392 106958
L125392 106787
L125421 106730
L125450 106701
L125507 106672
L125621 106672
L125678 106701
" />
<path d="M125964 106844
L126421 106844
" />
<path d="M126707 107072
L126707 106472
L126935 106472
L126992 106501
L127021 106530
L127050 106587
L127050 106672
L127021 106730
L126992 106758
L126935 106787
L126707 106787
" />
<path d="M127392 107072
L127335 107044
L127307 107015
L127278 106958
L127278 106787
L127307 106730
L127335 106701
L127392 106672
L127478 106672
L127535 106701
L127564 106730
L127592 106787
L127592 106958
L127564 107015
L127535 107044
L127478 107072
L127392 107072
" />
<path d="M127792 106672
L127907 107072
L128021 106787
L128135 107072
L128250 106672
" />
<path d="M128707 107044
L128650 107072
L128535 107072
L128478 107044
L128450 106987
L128450 106758
L128478 106701
L128535 106672
L128650 106672
L128707 106701
L128735 106758
L128735 106815
L128450 106872
" />
<path d="M128992 107072
L128992 106672
" />
<path d="M128992 106787
L129021 106730
L129050 106701
L129107 106672
L129164 106672
" />
<path d="M129335 107044
L129421 107072
L129564 107072
L129621 107044
L129650 107015
L129678 106958
L129678 106901
L129650 106844
L129621 106815
L129564 106787
L129450 106758
L129392 106730
L129364 106701
L129335 106644
L129335 106587
L129364 106530
L129392 106501
L129450 106472
L129592 106472
L129678 106501
" />
<path d="M130192 106672
L130192 107072
" />
<path d="M129935 106672
L129935 106987
L129964 107044
L130021 107072
L130107 107072
L130164 107044
L130192 107015
" />
<path d="M130478 106672
L130478 107272
" />
<path d="M130478 106701
L130535 106672
L130650 106672
L130707 106701
L130735 106730
L130764 106787
L130764 106958
L130735 107015
L130707 107044
L130650 107072
L130535 107072
L130478 107044
" />
<path d="M131021 106672
L131021 107272
" />
<path d="M131021 106701
L131078 106672
L131192 106672
L131250 106701
L131278 106730
L131307 106787
L131307 106958
L131278 107015
L131250 107044
L131192 107072
L131078 107072
L131021 107044
" />
<path d="M131650 107072
L131592 107044
L131564 106987
L131564 106472
" />
<path d="M131821 106672
L131964 107072
" />
<path d="M132107 106672
L131964 107072
L131907 107215
L131878 107244
L131821 107272
" />
<path d="M132335 107015
L132364 107044
L132335 107072
L132307 107044
L132335 107015
L132335 107072
" />
<path d="M132621 107072
L132621 106472
" />
<path d="M132678 106844
L132850 107072
" />
<path d="M132850 106672
L132621 106901
" />
<path d="M133107 107072
L133107 106672
" />
<path d="M133107 106472
L133078 106501
L133107 106530
L133135 106501
L133107 106472
L133107 106530
" />
<path d="M133650 107044
L133592 107072
L133478 107072
L133421 107044
L133392 107015
L133364 106958
L133364 106787
L133392 106730
L133421 106701
L133478 106672
L133592 106672
L133650 106701
" />
<path d="M134164 107072
L134164 106758
L134135 106701
L134078 106672
L133964 106672
L133907 106701
" />
<path d="M134164 107044
L134107 107072
L133964 107072
L133907 107044
L133878 106987
L133878 106930
L133907 106872
L133964 106844
L134107 106844
L134164 106815
" />
<path d="M134707 107072
L134707 106472
" />
<path d="M134707 107044
L134650 107072
L134535 107072
L134478 107044
L134450 107015
L134421 106958
L134421 106787
L134450 106730
L134478 106701
L134535 106672
L134650 106672
L134707 106701
" />
<path d="M134850 107130
L135307 107130
" />
<path d="M135450 106672
L135450 107272
" />
<path d="M135450 106701
L135507 106672
L135621 106672
L135678 106701
L135707 106730
L135735 106787
L135735 106958
L135707 107015
L135678 107044
L135621 107072
L135507 107072
L135450 107044
" />
<path d="M136250 107044
L136192 107072
L136078 107072
L136021 107044
L135992 107015
L135964 106958
L135964 106787
L135992 106730
L136021 106701
L136078 106672
L136192 106672
L136250 106701
" />
<path d="M136507 107072
L136507 106472
" />
<path d="M136507 106701
L136564 106672
L136678 106672
L136735 106701
L136764 106730
L136792 106787
L136792 106958
L136764 107015
L136735 107044
L136678 107072
L136564 107072
L136507 107044
" />
<path d="M119364 108244
L119450 108272
L119592 108272
L119650 108244
L119678 108215
L119707 108158
L119707 108101
L119678 108044
L119650 108015
L119592 107987
L119478 107958
L119421 107930
L119392 107901
L119364 107844
L119364 107787
L119392 107730
L119421 107701
L119478 107672
L119621 107672
L119707 107701
" />
<path d="M119964 108272
L119964 107672
" />
<path d="M120221 108272
L120221 107958
L120192 107901
L120135 107872
L120050 107872
L119992 107901
L119964 107930
" />
<path d="M120735 108244
L120678 108272
L120564 108272
L120507 108244
L120478 108187
L120478 107958
L120507 107901
L120564 107872
L120678 107872
L120735 107901
L120764 107958
L120764 108015
L120478 108072
" />
<path d="M121250 108244
L121192 108272
L121078 108272
L121021 108244
L120992 108187
L120992 107958
L121021 107901
L121078 107872
L121192 107872
L121250 107901
L121278 107958
L121278 108015
L120992 108072
" />
<path d="M121450 107872
L121678 107872
" />
<path d="M121535 107672
L121535 108187
L121564 108244
L121621 108272
L121678 108272
" />
<path d="M121878 108215
L121907 108244
L121878 108272
L121850 108244
L121878 108215
L121878 108272
" />
<path d="M121878 107901
L121907 107930
L121878 107958
L121850 107930
L121878 107901
L121878 107958
" />
<path d="M118650 106230
L118650 112230
" />
<path d="M118650 106230
L160650 106230
" />
<path d="M118650 106230
L160650 106230
" />
<path d="M118650 108630
L160650 108630
" />
<path d="M151850 109830
L151850 112230
" />
<path d="M118650 111030
L160650 111030
" />
<path d="M118650 109830
L160650 109830
" />
<path d="M125250 109830
L125250 111030
" />
</g>
<g style="fill:#FFFF00; fill-opacity:0.0; 
stroke:#FFFF00; stroke-width:59.0551; stroke-opacity:1; 
stroke-linecap:round; stroke-linejoin:round;">
<path d="M101500 39500
L102000 39500
" />
<path d="M101500 68500
L102000 68500
" />
<path d="M63500 68500
L63000 68500
" />
<path d="M63500 39500
L63000 39500
" />
<path d="M63000 68500
L62000 68500
" />
<path d="M63000 39500
L62000 39500
" />
<path d="M62000 68500
L62000 53500
" />
<path d="M101500 68500
L63500 68500
" />
<path d="M102000 39500
L102000 68500
" />
<path d="M63500 39500
L101500 39500
" />
<path d="M62000 53500
L62000 39500
" />
</g>
<g style="fill:#00A0A0; fill-opacity:0.0; 
stroke:#00A0A0; stroke-width:80; stroke-opacity:1; 
stroke-linecap:round; stroke-linejoin:round;">
<path d="M98161 57295
L97761 57295
L97761 57142
L97780 57104
L97800 57085
L97838 57066
L97895 57066
L97933 57085
L97952 57104
L97971 57142
L97971 57295
" />
<path d="M97761 56933
L97761 56685
L97914 56819
L97914 56761
L97933 56723
L97952 56704
L97990 56685
L98085 56685
L98123 56704
L98142 56723
L98161 56761
L98161 56876
L98142 56914
L98123 56933
" />
</g>
<g style="fill:#00A0A0; fill-opacity:0.0; 
stroke:#00A0A0; stroke-width:60; stroke-opacity:1; 
stroke-linecap:round; stroke-linejoin:round;">
<path d="M99871 50221
L99571 50221
L99571 50107
L99585 50078
L99600 50064
L99628 50050
L99671 50050
L99700 50064
L99714 50078
L99728 50107
L99728 50221
" />
<path d="M99600 49935
L99585 49921
L99571 49892
L99571 49821
L99585 49792
L99600 49778
L99628 49764
L99657 49764
L99700 49778
L99871 49950
L99871 49764
" />
<path d="M65871 54721
L65571 54721
L65571 54607
L65585 54578
L65600 54564
L65628 54550
L65671 54550
L65700 54564
L65714 54578
L65728 54607
L65728 54721
" />
<path d="M65871 54264
L65871 54435
" />
<path d="M65871 54350
L65571 54350
L65614 54378
L65642 54407
L65657 54435
" />
</g>
<g style="fill:#00A0A0; fill-opacity:0.0; 
stroke:#00A0A0; stroke-width:80; stroke-opacity:1; 
stroke-linecap:round; stroke-linejoin:round;">
<path d="M94433 54123
L94414 54142
L94357 54161
L94319 54161
L94261 54142
L94223 54104
L94204 54066
L94185 53990
L94185 53933
L94204 53857
L94223 53819
L94261 53780
L94319 53761
L94357 53761
L94414 53780
L94433 53800
" />
<path d="M94814 54161
L94585 54161
" />
<path d="M94700 54161
L94700 53761
L94661 53819
L94623 53857
L94585 53876
" />
<path d="M75623 54066
L75642 54085
L75661 54142
L75661 54180
L75642 54238
L75604 54276
L75566 54295
L75490 54314
L75433 54314
L75357 54295
L75319 54276
L75280 54238
L75261 54180
L75261 54142
L75280 54085
L75300 54066
" />
<path d="M75300 53914
L75280 53895
L75261 53857
L75261 53761
L75280 53723
L75300 53704
L75338 53685
L75376 53685
L75433 53704
L75661 53933
L75661 53685
" />
<path d="M69623 54066
L69642 54085
L69661 54142
L69661 54180
L69642 54238
L69604 54276
L69566 54295
L69490 54314
L69433 54314
L69357 54295
L69319 54276
L69280 54238
L69261 54180
L69261 54142
L69280 54085
L69300 54066
" />
<path d="M69261 53933
L69261 53685
L69414 53819
L69414 53761
L69433 53723
L69452 53704
L69490 53685
L69585 53685
L69623 53704
L69642 53723
L69661 53761
L69661 53876
L69642 53914
L69623 53933
" />
<path d="M88623 54066
L88642 54085
L88661 54142
L88661 54180
L88642 54238
L88604 54276
L88566 54295
L88490 54314
L88433 54314
L88357 54295
L88319 54276
L88280 54238
L88261 54180
L88261 54142
L88280 54085
L88300 54066
" />
<path d="M88395 53723
L88661 53723
" />
<path d="M88242 53819
L88528 53914
L88528 53666
" />
<path d="M91623 51066
L91642 51085
L91661 51142
L91661 51180
L91642 51238
L91604 51276
L91566 51295
L91490 51314
L91433 51314
L91357 51295
L91319 51276
L91280 51238
L91261 51180
L91261 51142
L91280 51085
L91300 51066
" />
<path d="M91261 50704
L91261 50895
L91452 50914
L91433 50895
L91414 50857
L91414 50761
L91433 50723
L91452 50704
L91490 50685
L91585 50685
L91623 50704
L91642 50723
L91661 50761
L91661 50857
L91642 50895
L91623 50914
" />
<path d="M72433 51123
L72414 51142
L72357 51161
L72319 51161
L72261 51142
L72223 51104
L72204 51066
L72185 50990
L72185 50933
L72204 50857
L72223 50819
L72261 50780
L72319 50761
L72357 50761
L72414 50780
L72433 50800
" />
<path d="M72776 50761
L72700 50761
L72661 50780
L72642 50800
L72604 50857
L72585 50933
L72585 51085
L72604 51123
L72623 51142
L72661 51161
L72738 51161
L72776 51142
L72795 51123
L72814 51085
L72814 50990
L72795 50952
L72776 50933
L72738 50914
L72661 50914
L72623 50933
L72604 50952
L72585 50990
" />
<path d="M72433 57123
L72414 57142
L72357 57161
L72319 57161
L72261 57142
L72223 57104
L72204 57066
L72185 56990
L72185 56933
L72204 56857
L72223 56819
L72261 56780
L72319 56761
L72357 56761
L72414 56780
L72433 56800
" />
<path d="M72566 56761
L72833 56761
L72661 57161
" />
<path d="M91623 57066
L91642 57085
L91661 57142
L91661 57180
L91642 57238
L91604 57276
L91566 57295
L91490 57314
L91433 57314
L91357 57295
L91319 57276
L91280 57238
L91261 57180
L91261 57142
L91280 57085
L91300 57066
" />
<path d="M91433 56838
L91414 56876
L91395 56895
L91357 56914
L91338 56914
L91300 56895
L91280 56876
L91261 56838
L91261 56761
L91280 56723
L91300 56704
L91338 56685
L91357 56685
L91395 56704
L91414 56723
L91433 56761
L91433 56838
L91452 56876
L91471 56895
L91509 56914
L91585 56914
L91623 56895
L91642 56876
L91661 56838
L91661 56761
L91642 56723
L91623 56704
L91585 56685
L91509 56685
L91471 56704
L91452 56723
L91433 56761
" />
</g>
<g style="fill:#00A0A0; fill-opacity:0.0; 
stroke:#00A0A0; stroke-width:120; stroke-opacity:1; 
stroke-linecap:round; stroke-linejoin:round;">
<path d="M92042 46642
L92042 47128
L92071 47185
L92100 47214
L92157 47242
L92271 47242
L92328 47214
L92357 47185
L92385 47128
L92385 46642
" />
<path d="M92985 47242
L92642 47242
" />
<path d="M92814 47242
L92814 46642
L92757 46728
L92700 46785
L92642 46814
" />
<path d="M90671 40742
L90385 40742
L90385 40142
" />
<path d="M90871 40742
L90871 40142
L91071 40571
L91271 40142
L91271 40742
" />
<path d="M91499 40142
L91899 40142
L91642 40742
" />
<path d="M92214 40400
L92157 40371
L92128 40342
L92100 40285
L92100 40257
L92128 40200
L92157 40171
L92214 40142
L92328 40142
L92385 40171
L92414 40200
L92442 40257
L92442 40285
L92414 40342
L92385 40371
L92328 40400
L92214 40400
L92157 40428
L92128 40457
L92100 40514
L92100 40628
L92128 40685
L92157 40714
L92214 40742
L92328 40742
L92385 40714
L92414 40685
L92442 40628
L92442 40514
L92414 40457
L92385 40428
L92328 40400
" />
<path d="M92814 40142
L92871 40142
L92928 40171
L92957 40200
L92985 40257
L93014 40371
L93014 40514
L92985 40628
L92957 40685
L92928 40714
L92871 40742
L92814 40742
L92757 40714
L92728 40685
L92700 40628
L92671 40514
L92671 40371
L92700 40257
L92728 40200
L92757 40171
L92814 40142
" />
<path d="M93557 40142
L93271 40142
L93242 40428
L93271 40400
L93328 40371
L93471 40371
L93528 40400
L93557 40428
L93585 40485
L93585 40628
L93557 40685
L93528 40714
L93471 40742
L93328 40742
L93271 40714
L93242 40685
" />
<path d="M94185 40685
L94157 40714
L94071 40742
L94014 40742
L93928 40714
L93871 40657
L93842 40600
L93814 40485
L93814 40400
L93842 40285
L93871 40228
L93928 40171
L94014 40142
L94071 40142
L94157 40171
L94185 40200
" />
<path d="M94357 40142
L94700 40142
" />
<path d="M94528 40742
L94528 40142
" />
<path d="M73042 46642
L73042 47128
L73071 47185
L73100 47214
L73157 47242
L73271 47242
L73328 47214
L73357 47185
L73385 47128
L73385 46642
" />
<path d="M73642 46700
L73671 46671
L73728 46642
L73871 46642
L73928 46671
L73957 46700
L73985 46757
L73985 46814
L73957 46900
L73614 47242
L73985 47242
" />
<path d="M71671 40742
L71385 40742
L71385 40142
" />
<path d="M71871 40742
L71871 40142
L72071 40571
L72271 40142
L72271 40742
" />
<path d="M72499 40142
L72899 40142
L72642 40742
" />
<path d="M73214 40400
L73157 40371
L73128 40342
L73100 40285
L73100 40257
L73128 40200
L73157 40171
L73214 40142
L73328 40142
L73385 40171
L73414 40200
L73442 40257
L73442 40285
L73414 40342
L73385 40371
L73328 40400
L73214 40400
L73157 40428
L73128 40457
L73100 40514
L73100 40628
L73128 40685
L73157 40714
L73214 40742
L73328 40742
L73385 40714
L73414 40685
L73442 40628
L73442 40514
L73414 40457
L73385 40428
L73328 40400
" />
<path d="M73814 40142
L73871 40142
L73928 40171
L73957 40200
L73985 40257
L74014 40371
L74014 40514
L73985 40628
L73957 40685
L73928 40714
L73871 40742
L73814 40742
L73757 40714
L73728 40685
L73700 40628
L73671 40514
L73671 40371
L73700 40257
L73728 40200
L73757 40171
L73814 40142
" />
<path d="M74557 40142
L74271 40142
L74242 40428
L74271 40400
L74328 40371
L74471 40371
L74528 40400
L74557 40428
L74585 40485
L74585 40628
L74557 40685
L74528 40714
L74471 40742
L74328 40742
L74271 40714
L74242 40685
" />
<path d="M75185 40685
L75157 40714
L75071 40742
L75014 40742
L74928 40714
L74871 40657
L74842 40600
L74814 40485
L74814 40400
L74842 40285
L74871 40228
L74928 40171
L75014 40142
L75071 40142
L75157 40171
L75185 40200
" />
<path d="M75357 40142
L75700 40142
" />
<path d="M75528 40742
L75528 40142
" />
<path d="M71042 60642
L71042 61128
L71071 61185
L71100 61214
L71157 61242
L71271 61242
L71328 61214
L71357 61185
L71385 61128
L71385 60642
" />
<path d="M71614 60642
L71985 60642
L71785 60871
L71871 60871
L71928 60900
L71957 60928
L71985 60985
L71985 61128
L71957 61185
L71928 61214
L71871 61242
L71700 61242
L71642 61214
L71614 61185
" />
<path d="M69671 67742
L69385 67742
L69385 67142
" />
<path d="M69871 67742
L69871 67142
L70071 67571
L70271 67142
L70271 67742
" />
<path d="M70499 67142
L70899 67142
L70642 67742
" />
<path d="M71214 67400
L71157 67371
L71128 67342
L71100 67285
L71100 67257
L71128 67200
L71157 67171
L71214 67142
L71328 67142
L71385 67171
L71414 67200
L71442 67257
L71442 67285
L71414 67342
L71385 67371
L71328 67400
L71214 67400
L71157 67428
L71128 67457
L71100 67514
L71100 67628
L71128 67685
L71157 67714
L71214 67742
L71328 67742
L71385 67714
L71414 67685
L71442 67628
L71442 67514
L71414 67457
L71385 67428
L71328 67400
" />
<path d="M71814 67142
L71871 67142
L71928 67171
L71957 67200
L71985 67257
L72014 67371
L72014 67514
L71985 67628
L71957 67685
L71928 67714
L71871 67742
L71814 67742
L71757 67714
L71728 67685
L71700 67628
L71671 67514
L71671 67371
L71700 67257
L71728 67200
L71757 67171
L71814 67142
" />
<path d="M72300 67742
L72414 67742
L72471 67714
L72500 67685
L72557 67600
L72585 67485
L72585 67257
L72557 67200
L72528 67171
L72471 67142
L72357 67142
L72300 67171
L72271 67200
L72242 67257
L72242 67400
L72271 67457
L72300 67485
L72357 67514
L72471 67514
L72528 67485
L72557 67457
L72585 67400
" />
<path d="M73185 67685
L73157 67714
L73071 67742
L73014 67742
L72928 67714
L72871 67657
L72842 67600
L72814 67485
L72814 67400
L72842 67285
L72871 67228
L72928 67171
L73014 67142
L73071 67142
L73157 67171
L73185 67200
" />
<path d="M73357 67142
L73700 67142
" />
<path d="M73528 67742
L73528 67142
" />
<path d="M90042 60642
L90042 61128
L90071 61185
L90100 61214
L90157 61242
L90271 61242
L90328 61214
L90357 61185
L90385 61128
L90385 60642
" />
<path d="M90928 60842
L90928 61242
" />
<path d="M90785 60614
L90642 61042
L91014 61042
" />
<path d="M88671 67742
L88385 67742
L88385 67142
" />
<path d="M88871 67742
L88871 67142
L89071 67571
L89271 67142
L89271 67742
" />
<path d="M89499 67142
L89899 67142
L89642 67742
" />
<path d="M90214 67400
L90157 67371
L90128 67342
L90100 67285
L90100 67257
L90128 67200
L90157 67171
L90214 67142
L90328 67142
L90385 67171
L90414 67200
L90442 67257
L90442 67285
L90414 67342
L90385 67371
L90328 67400
L90214 67400
L90157 67428
L90128 67457
L90100 67514
L90100 67628
L90128 67685
L90157 67714
L90214 67742
L90328 67742
L90385 67714
L90414 67685
L90442 67628
L90442 67514
L90414 67457
L90385 67428
L90328 67400
" />
<path d="M91014 67742
L90671 67742
" />
<path d="M90842 67742
L90842 67142
L90785 67228
L90728 67285
L90671 67314
" />
<path d="M91242 67200
L91271 67171
L91328 67142
L91471 67142
L91528 67171
L91557 67200
L91585 67257
L91585 67314
L91557 67400
L91214 67742
L91585 67742
" />
<path d="M92185 67685
L92157 67714
L92071 67742
L92014 67742
L91928 67714
L91871 67657
L91842 67600
L91814 67485
L91814 67400
L91842 67285
L91871 67228
L91928 67171
L92014 67142
L92071 67142
L92157 67171
L92185 67200
" />
<path d="M92357 67142
L92700 67142
" />
<path d="M92528 67742
L92528 67142
" />
</g>
<g style="fill:#00A0A0; fill-opacity:0.0; 
stroke:#00A0A0; stroke-width:80; stroke-opacity:1; 
stroke-linecap:round; stroke-linejoin:round;">
<path d="M72916 47722
L72750 47460
" />
<path d="M72630 47722
L72630 47172
L72821 47172
L72869 47198
L72892 47225
L72916 47277
L72916 47355
L72892 47408
L72869 47434
L72821 47460
L72630 47460
" />
<path d="M73392 47722
L73107 47722
" />
<path d="M73250 47722
L73250 47172
L73202 47251
L73154 47303
L73107 47329
" />
<path d="M71916 60722
L71750 60460
" />
<path d="M71630 60722
L71630 60172
L71821 60172
L71869 60198
L71892 60225
L71916 60277
L71916 60355
L71892 60408
L71869 60434
L71821 60460
L71630 60460
" />
<path d="M72107 60225
L72130 60198
L72178 60172
L72297 60172
L72345 60198
L72369 60225
L72392 60277
L72392 60329
L72369 60408
L72083 60722
L72392 60722
" />
<path d="M91916 47722
L91750 47460
" />
<path d="M91630 47722
L91630 47172
L91821 47172
L91869 47198
L91892 47225
L91916 47277
L91916 47355
L91892 47408
L91869 47434
L91821 47460
L91630 47460
" />
<path d="M92083 47172
L92392 47172
L92226 47382
L92297 47382
L92345 47408
L92369 47434
L92392 47486
L92392 47617
L92369 47670
L92345 47696
L92297 47722
L92154 47722
L92107 47696
L92083 47670
" />
</g>
<g style="fill:#00A0A0; fill-opacity:0.0; 
stroke:#00A0A0; stroke-width:100; stroke-opacity:1; 
stroke-linecap:round; stroke-linejoin:round;">
<path d="M99500 55000
L99500 59000
" />
<path d="M98500 55000
L98500 59000
" />
<path d="M98500 59000
L99500 59000
" />
<path d="M99500 55000
L98500 55000
" />
</g>
<g style="fill:#00A0A0; fill-opacity:0.0; 
stroke:#00A0A0; stroke-width:60; stroke-opacity:1; 
stroke-linecap:round; stroke-linejoin:round;">
<path d="M98500 49000
L99500 49000
" />
<path d="M99500 49000
L99500 51000
" />
<path d="M99500 51000
L98500 51000
" />
<path d="M98500 51000
L98500 49000
" />
<path d="M64500 53500
L65500 53500
" />
<path d="M65500 53500
L65500 55500
" />
<path d="M65500 55500
L64500 55500
" />
<path d="M64500 55500
L64500 53500
" />
</g>
<g style="fill:#00A0A0; fill-opacity:0.0; 
stroke:#00A0A0; stroke-width:118.11; stroke-opacity:1; 
stroke-linecap:round; stroke-linejoin:round;">
<path d="M96000 49000
L96000 59000
" />
<path d="M96000 59000
L93000 59000
" />
<path d="M93000 59000
L93000 49000
" />
<path d="M93000 49000
L96000 49000
" />
</g>
<g style="fill:#00A0A0; fill-opacity:0.0; 
stroke:#00A0A0; stroke-width:120; stroke-opacity:1; 
stroke-linecap:round; stroke-linejoin:round;">
<path d="M95700 49100
L95900 49300
" />
</g>
<g style="fill:#00A0A0; fill-opacity:0.0; 
stroke:#00A0A0; stroke-width:118.11; stroke-opacity:1; 
stroke-linecap:round; stroke-linejoin:round;">
<path d="M77000 49000
L77000 59000
" />
<path d="M77000 59000
L74000 59000
" />
<path d="M74000 59000
L74000 49000
" />
<path d="M74000 49000
L77000 49000
" />
</g>
<g style="fill:#00A0A0; fill-opacity:0.0; 
stroke:#00A0A0; stroke-width:120; stroke-opacity:1; 
stroke-linecap:round; stroke-linejoin:round;">
<path d="M76700 49100
L76900 49300
" />
</g>
<g style="fill:#00A0A0; fill-opacity:0.0; 
stroke:#00A0A0; stroke-width:118.11; stroke-opacity:1; 
stroke-linecap:round; stroke-linejoin:round;">
<path d="M68000 59000
L68000 49000
" />
<path d="M68000 49000
L71000 49000
" />
<path d="M71000 49000
L71000 59000
" />
<path d="M71000 59000
L68000 59000
" />
</g>
<g style="fill:#00A0A0; fill-opacity:0.0; 
stroke:#00A0A0; stroke-width:120; stroke-opacity:1; 
stroke-linecap:round; stroke-linejoin:round;">
<path d="M68300 58900
L68100 58700
" />
</g>
<g style="fill:#00A0A0; fill-opacity:0.0; 
stroke:#00A0A0; stroke-width:118.11; stroke-opacity:1; 
stroke-linecap:round; stroke-linejoin:round;">
<path d="M87000 59000
L87000 49000
" />
<path d="M87000 49000
L90000 49000
" />
<path d="M90000 49000
L90000 59000
" />
<path d="M90000 59000
L87000 59000
" />
</g>
<g style="fill:#00A0A0; fill-opacity:0.0; 
stroke:#00A0A0; stroke-width:120; stroke-opacity:1; 
stroke-linecap:round; stroke-linejoin:round;">
<path d="M87300 58900
L87100 58700
" />
</g>
<g style="fill:#00A0A0; fill-opacity:0.0; 
stroke:#00A0A0; stroke-width:118.11; stroke-opacity:1; 
stroke-linecap:round; stroke-linejoin:round;">
<path d="M92500 48500
L92500 53500
" />
<path d="M92500 53500
L90500 53500
" />
<path d="M90500 53500
L90500 48500
" />
<path d="M90500 48500
L92500 48500
" />
</g>
<g style="fill:#00A0A0; fill-opacity:0.0; 
stroke:#00A0A0; stroke-width:120; stroke-opacity:1; 
stroke-linecap:round; stroke-linejoin:round;">
<path d="M92200 48600
L92400 48800
" />
</g>
<g style="fill:#00A0A0; fill-opacity:0.0; 
stroke:#00A0A0; stroke-width:118.11; stroke-opacity:1; 
stroke-linecap:round; stroke-linejoin:round;">
<path d="M73500 48500
L73500 53500
" />
<path d="M73500 53500
L71500 53500
" />
<path d="M71500 53500
L71500 48500
" />
<path d="M71500 48500
L73500 48500
" />
</g>
<g style="fill:#00A0A0; fill-opacity:0.0; 
stroke:#00A0A0; stroke-width:120; stroke-opacity:1; 
stroke-linecap:round; stroke-linejoin:round;">
<path d="M73200 48600
L73400 48800
" />
</g>
<g style="fill:#00A0A0; fill-opacity:0.0; 
stroke:#00A0A0; stroke-width:118.11; stroke-opacity:1; 
stroke-linecap:round; stroke-linejoin:round;">
<path d="M71500 59500
L71500 54500
" />
<path d="M71500 54500
L73500 54500
" />
<path d="M73500 54500
L73500 59500
" />
<path d="M73500 59500
L71500 59500
" />
</g>
<g style="fill:#00A0A0; fill-opacity:0.0; 
stroke:#00A0A0; stroke-width:120; stroke-opacity:1; 
stroke-linecap:round; stroke-linejoin:round;">
<path d="M71800 59400
L71600 59200
" />
</g>
<g style="fill:#00A0A0; fill-opacity:0.0; 
stroke:#00A0A0; stroke-width:118.11; stroke-opacity:1; 
stroke-linecap:round; stroke-linejoin:round;">
<path d="M90500 59500
L90500 54500
" />
<path d="M90500 54500
L92500 54500
" />
<path d="M92500 54500
L92500 59500
" />
<path d="M92500 59500
L90500 59500
" />
</g>
<g style="fill:#00A0A0; fill-opacity:0.0; 
stroke:#00A0A0; stroke-width:120; stroke-opacity:1; 
stroke-linecap:round; stroke-linejoin:round;">
<path d="M90800 59400
L90600 59200
" />
<path d="M99400 41100
L95600 41100
" />
<path d="M89400 41100
L85600 41100
" />
<path d="M95600 43400
L89400 43400
" />
<path d="M89400 41100
L89400 43400
" />
<path d="M95600 41100
L95600 43400
" />
<path d="M89400 43900
L89400 46200
" />
<path d="M95600 46200
L95600 43900
" />
<path d="M89400 43900
L95600 43900
" />
<path d="M95600 46200
L99400 46200
" />
<path d="M85600 46200
L89400 46200
" />
<path d="M99400 41100
L99400 46200
" />
<path d="M85600 41100
L85600 46200
" />
<path d="M90500 44500
L90500 46000
" />
<path d="M90500 46000
L94500 46000
" />
<path d="M94500 46000
L94500 44000
" />
<path d="M94500 44000
L90500 44000
" />
<path d="M90500 44000
L90500 44500
" />
<path d="M80400 41100
L76600 41100
" />
<path d="M70400 41100
L66600 41100
" />
<path d="M76600 43400
L70400 43400
" />
<path d="M70400 41100
L70400 43400
" />
<path d="M76600 41100
L76600 43400
" />
<path d="M70400 43900
L70400 46200
" />
<path d="M76600 46200
L76600 43900
" />
<path d="M70400 43900
L76600 43900
" />
<path d="M76600 46200
L80400 46200
" />
<path d="M66600 46200
L70400 46200
" />
<path d="M80400 41100
L80400 46200
" />
<path d="M66600 41100
L66600 46200
" />
<path d="M71500 44500
L71500 46000
" />
<path d="M71500 46000
L75500 46000
" />
<path d="M75500 46000
L75500 44000
" />
<path d="M75500 44000
L71500 44000
" />
<path d="M71500 44000
L71500 44500
" />
<path d="M64600 66900
L68400 66900
" />
<path d="M74600 66900
L78400 66900
" />
<path d="M68400 64600
L74600 64600
" />
<path d="M74600 66900
L74600 64600
" />
<path d="M68400 66900
L68400 64600
" />
<path d="M74600 64100
L74600 61800
" />
<path d="M68400 61800
L68400 64100
" />
<path d="M74600 64100
L68400 64100
" />
<path d="M68400 61800
L64600 61800
" />
<path d="M78400 61800
L74600 61800
" />
<path d="M64600 66900
L64600 61800
" />
<path d="M78400 66900
L78400 61800
" />
<path d="M73500 63500
L73500 62000
" />
<path d="M73500 62000
L69500 62000
" />
<path d="M69500 62000
L69500 64000
" />
<path d="M69500 64000
L73500 64000
" />
<path d="M73500 64000
L73500 63500
" />
<path d="M83600 66900
L87400 66900
" />
<path d="M93600 66900
L97400 66900
" />
<path d="M87400 64600
L93600 64600
" />
<path d="M93600 66900
L93600 64600
" />
<path d="M87400 66900
L87400 64600
" />
<path d="M93600 64100
L93600 61800
" />
<path d="M87400 61800
L87400 64100
" />
<path d="M93600 64100
L87400 64100
" />
<path d="M87400 61800
L83600 61800
" />
<path d="M97400 61800
L93600 61800
" />
<path d="M83600 66900
L83600 61800
" />
<path d="M97400 66900
L97400 61800
" />
<path d="M92500 63500
L92500 62000
" />
<path d="M92500 62000
L88500 62000
" />
<path d="M88500 62000
L88500 64000
" />
<path d="M88500 64000
L92500 64000
" />
<path d="M92500 64000
L92500 63500
" />
<path d="M70500 47500
L70900 47500
" />
<path d="M75500 47500
L75100 47500
" />
<path d="M75100 47000
L75100 48000
" />
<path d="M75100 48000
L70900 48000
" />
<path d="M70900 48000
L70900 47000
" />
<path d="M70900 47000
L75100 47000
" />
<path d="M70900 47200
L71100 47000
" />
<path d="M69500 60500
L69900 60500
" />
<path d="M74500 60500
L74100 60500
" />
<path d="M74100 60000
L74100 61000
" />
<path d="M74100 61000
L69900 61000
" />
<path d="M69900 61000
L69900 60000
" />
<path d="M69900 60000
L74100 60000
" />
<path d="M69900 60200
L70100 60000
" />
<path d="M89500 47500
L89900 47500
" />
<path d="M94500 47500
L94100 47500
" />
<path d="M94100 47000
L94100 48000
" />
<path d="M94100 48000
L89900 48000
" />
<path d="M89900 48000
L89900 47000
" />
<path d="M89900 47000
L94100 47000
" />
<path d="M89900 47200
L90100 47000
" />
</g>
<g style="fill:#808000; fill-opacity:0.0; 
stroke:#808000; stroke-width:39.3701; stroke-opacity:1; 
stroke-linecap:round; stroke-linejoin:round;">
</g>
<g style="fill:#808000; fill-opacity:1.0; 
stroke:#808000; stroke-width:39.3701; stroke-opacity:1; 
stroke-linecap:round; stroke-linejoin:round;">
<polyline style="fill-rule:evenodd;"
points="99280,58780
98719,58780
98719,58219
99280,58219
99280,58780
" /> 
<circle cx="99000" cy="57500" r="280.315" /> 
<circle cx="99000" cy="56500" r="280.315" /> 
<circle cx="99000" cy="55500" r="280.315" /> 
<polyline style="fill-rule:evenodd;"
points="98719,49219
99280,49219
99280,49780
98719,49780
98719,49219
" /> 
<circle cx="99000" cy="50500" r="280.315" /> 
<polyline style="fill-rule:evenodd;"
points="64719,53719
65280,53719
65280,54280
64719,54280
64719,53719
" /> 
<circle cx="65000" cy="55000" r="280.315" /> 
<circle cx="94500" cy="49500" r="255.315" /> 
<circle cx="94500" cy="58500" r="255.315" /> 
<circle cx="75500" cy="49500" r="255.315" /> 
<circle cx="75500" cy="58500" r="255.315" /> 
<circle cx="69500" cy="58500" r="255.315" /> 
<circle cx="69500" cy="49500" r="255.315" /> 
<circle cx="88500" cy="58500" r="255.315" /> 
<circle cx="88500" cy="49500" r="255.315" /> 
<circle cx="91500" cy="49000" r="255.315" /> 
<circle cx="91500" cy="53000" r="255.315" /> 
<circle cx="72500" cy="49000" r="255.315" /> 
<circle cx="72500" cy="53000" r="255.315" /> 
<circle cx="72500" cy="59000" r="255.315" /> 
<circle cx="72500" cy="55000" r="255.315" /> 
<circle cx="91500" cy="59000" r="255.315" /> 
<circle cx="91500" cy="55000" r="255.315" /> 
</g>
<g style="fill:#808000; fill-opacity:1.0; 
stroke:#808000; stroke-width:687; stroke-opacity:1; 
stroke-linecap:round; stroke-linejoin:round;">
<path d="M93500 44851
L93500 45148
" />
</g>
<g style="fill:#808000; fill-opacity:1.0; 
stroke:#808000; stroke-width:688; stroke-opacity:1; 
stroke-linecap:round; stroke-linejoin:round;">
<path d="M92500 44852
L92500 45148
" />
<path d="M91500 44852
L91500 45148
" />
</g>
<g style="fill:#808000; fill-opacity:1.0; 
stroke:#808000; stroke-width:39.3701; stroke-opacity:1; 
stroke-linecap:round; stroke-linejoin:round;">
<circle cx="97500" cy="43625" r="767.815" /> 
<circle cx="87500" cy="43625" r="767.815" /> 
</g>
<g style="fill:#808000; fill-opacity:1.0; 
stroke:#808000; stroke-width:687; stroke-opacity:1; 
stroke-linecap:round; stroke-linejoin:round;">
<path d="M74500 44851
L74500 45148
" />
</g>
<g style="fill:#808000; fill-opacity:1.0; 
stroke:#808000; stroke-width:688; stroke-opacity:1; 
stroke-linecap:round; stroke-linejoin:round;">
<path d="M73500 44852
L73500 45148
" />
<path d="M72500 44852
L72500 45148
" />
</g>
<g style="fill:#808000; fill-opacity:1.0; 
stroke:#808000; stroke-width:39.3701; stroke-opacity:1; 
stroke-linecap:round; stroke-linejoin:round;">
<circle cx="78500" cy="43625" r="767.815" /> 
<circle cx="68500" cy="43625" r="767.815" /> 
</g>
<g style="fill:#808000; fill-opacity:1.0; 
stroke:#808000; stroke-width:687; stroke-opacity:1; 
stroke-linecap:round; stroke-linejoin:round;">
<path d="M70500 63148
L70500 62851
" />
</g>
<g style="fill:#808000; fill-opacity:1.0; 
stroke:#808000; stroke-width:688; stroke-opacity:1; 
stroke-linecap:round; stroke-linejoin:round;">
<path d="M71500 63148
L71500 62852
" />
<path d="M72500 63148
L72500 62852
" />
</g>
<g style="fill:#808000; fill-opacity:1.0; 
stroke:#808000; stroke-width:39.3701; stroke-opacity:1; 
stroke-linecap:round; stroke-linejoin:round;">
<circle cx="66500" cy="64375" r="767.815" /> 
<circle cx="76500" cy="64375" r="767.815" /> 
</g>
<g style="fill:#808000; fill-opacity:1.0; 
stroke:#808000; stroke-width:687; stroke-opacity:1; 
stroke-linecap:round; stroke-linejoin:round;">
<path d="M89500 63148
L89500 62851
" />
</g>
<g style="fill:#808000; fill-opacity:1.0; 
stroke:#808000; stroke-width:688; stroke-opacity:1; 
stroke-linecap:round; stroke-linejoin:round;">
<path d="M90500 63148
L90500 62852
" />
<path d="M91500 63148
L91500 62852
" />
</g>
<g style="fill:#808000; fill-opacity:1.0; 
stroke:#808000; stroke-width:39.3701; stroke-opacity:1; 
stroke-linecap:round; stroke-linejoin:round;">
<circle cx="85500" cy="64375" r="767.815" /> 
<circle cx="95500" cy="64375" r="767.815" /> 
<circle cx="70500" cy="47500" r="280.315" /> 
<circle cx="75500" cy="47500" r="280.315" /> 
<circle cx="69500" cy="60500" r="280.315" /> 
<circle cx="74500" cy="60500" r="280.315" /> 
<circle cx="89500" cy="47500" r="280.315" /> 
<circle cx="94500" cy="47500" r="280.315" /> 
</g> 
</svg>
